<mxfile host="Electron" agent="Mozilla/5.0 (Windows NT 10.0; Win64; x64) AppleWebKit/537.36 (KHTML, like Gecko) draw.io/24.7.17 Chrome/128.0.6613.36 Electron/32.0.1 Safari/537.36" version="24.7.17">
  <diagram name="1 oldal" id="uJiLxEKV_UfbXTqXORrR">
    <mxGraphModel dx="840" dy="497" grid="1" gridSize="10" guides="1" tooltips="1" connect="1" arrows="1" fold="1" page="1" pageScale="1" pageWidth="827" pageHeight="1169" math="0" shadow="0">
      <root>
        <mxCell id="0" />
        <mxCell id="1" parent="0" />
        <mxCell id="w9kOw2el9zwnNM_ipjZx-1" value="User" style="swimlane;childLayout=stackLayout;horizontal=1;startSize=50;horizontalStack=0;rounded=1;fontSize=14;fontStyle=0;strokeWidth=2;resizeParent=0;resizeLast=1;shadow=0;dashed=0;align=center;arcSize=4;whiteSpace=wrap;html=1;" vertex="1" parent="1">
          <mxGeometry x="170" y="130" width="160" height="250" as="geometry" />
        </mxCell>
        <mxCell id="w9kOw2el9zwnNM_ipjZx-2" value="&lt;div&gt;&lt;span style=&quot;background-color: initial;&quot;&gt;+id&lt;/span&gt;&lt;/div&gt;&lt;div&gt;&lt;span style=&quot;background-color: initial;&quot;&gt;+email&lt;/span&gt;&lt;br&gt;&lt;/div&gt;&lt;div&gt;+password&lt;/div&gt;&lt;div&gt;+lastName&lt;/div&gt;&lt;div&gt;+firstName&lt;/div&gt;&lt;div&gt;-nick&lt;/div&gt;&lt;div&gt;+postcode&lt;/div&gt;&lt;div&gt;+city&lt;/div&gt;&lt;div&gt;+address&lt;/div&gt;&lt;div&gt;+mobile&lt;/div&gt;&lt;div&gt;+role&lt;/div&gt;" style="align=left;strokeColor=none;fillColor=none;spacingLeft=4;fontSize=12;verticalAlign=top;resizable=0;rotatable=0;part=1;html=1;" vertex="1" parent="w9kOw2el9zwnNM_ipjZx-1">
          <mxGeometry y="50" width="160" height="200" as="geometry" />
        </mxCell>
        <mxCell id="w9kOw2el9zwnNM_ipjZx-3" value="Orders" style="swimlane;childLayout=stackLayout;horizontal=1;startSize=50;horizontalStack=0;rounded=1;fontSize=14;fontStyle=0;strokeWidth=2;resizeParent=0;resizeLast=1;shadow=0;dashed=0;align=center;arcSize=4;whiteSpace=wrap;html=1;" vertex="1" parent="1">
          <mxGeometry x="414" y="150" width="160" height="190" as="geometry" />
        </mxCell>
        <mxCell id="w9kOw2el9zwnNM_ipjZx-4" value="+id&lt;div&gt;+userId&lt;/div&gt;&lt;div&gt;+orderDate&lt;/div&gt;&lt;div&gt;+postcode&lt;/div&gt;&lt;div&gt;+city&lt;/div&gt;&lt;div&gt;+address&lt;/div&gt;&lt;div&gt;+price&lt;/div&gt;" style="align=left;strokeColor=none;fillColor=none;spacingLeft=4;fontSize=12;verticalAlign=top;resizable=0;rotatable=0;part=1;html=1;" vertex="1" parent="w9kOw2el9zwnNM_ipjZx-3">
          <mxGeometry y="50" width="160" height="140" as="geometry" />
        </mxCell>
        <mxCell id="w9kOw2el9zwnNM_ipjZx-7" style="edgeStyle=orthogonalEdgeStyle;rounded=0;orthogonalLoop=1;jettySize=auto;html=1;exitX=1;exitY=0.25;exitDx=0;exitDy=0;entryX=0;entryY=0.25;entryDx=0;entryDy=0;endArrow=ERmany;endFill=0;startArrow=ERone;startFill=0;" edge="1" parent="1" source="w9kOw2el9zwnNM_ipjZx-2" target="w9kOw2el9zwnNM_ipjZx-4">
          <mxGeometry relative="1" as="geometry" />
        </mxCell>
        <mxCell id="w9kOw2el9zwnNM_ipjZx-8" value="Products" style="swimlane;childLayout=stackLayout;horizontal=1;startSize=50;horizontalStack=0;rounded=1;fontSize=14;fontStyle=0;strokeWidth=2;resizeParent=0;resizeLast=1;shadow=0;dashed=0;align=center;arcSize=4;whiteSpace=wrap;html=1;" vertex="1" parent="1">
          <mxGeometry x="830" y="135" width="158" height="240" as="geometry" />
        </mxCell>
        <mxCell id="w9kOw2el9zwnNM_ipjZx-9" value="+id&lt;div&gt;&lt;div&gt;+name&lt;/div&gt;&lt;div&gt;+category&lt;br&gt;&lt;/div&gt;&lt;div&gt;+subCategory&lt;/div&gt;&lt;div&gt;+brand&lt;/div&gt;&lt;div&gt;-discount&lt;/div&gt;&lt;div&gt;+volume&lt;/div&gt;&lt;div&gt;+alcoholPercentage&lt;/div&gt;&lt;div&gt;+description&lt;/div&gt;&lt;div&gt;+images&lt;/div&gt;&lt;div&gt;+rating&lt;/div&gt;&lt;div&gt;+price&lt;/div&gt;&lt;/div&gt;" style="align=left;strokeColor=none;fillColor=none;spacingLeft=4;fontSize=12;verticalAlign=top;resizable=0;rotatable=0;part=1;html=1;" vertex="1" parent="w9kOw2el9zwnNM_ipjZx-8">
          <mxGeometry y="50" width="158" height="190" as="geometry" />
        </mxCell>
        <mxCell id="w9kOw2el9zwnNM_ipjZx-10" value="ProductOrders" style="swimlane;childLayout=stackLayout;horizontal=1;startSize=50;horizontalStack=0;rounded=1;fontSize=14;fontStyle=0;strokeWidth=2;resizeParent=0;resizeLast=1;shadow=0;dashed=0;align=center;arcSize=4;whiteSpace=wrap;html=1;" vertex="1" parent="1">
          <mxGeometry x="620" y="150" width="160" height="190" as="geometry" />
        </mxCell>
        <mxCell id="w9kOw2el9zwnNM_ipjZx-11" value="+id&lt;div&gt;+orderId&lt;/div&gt;&lt;div&gt;+productId&lt;/div&gt;&lt;div&gt;-discount&lt;/div&gt;" style="align=left;strokeColor=none;fillColor=none;spacingLeft=4;fontSize=12;verticalAlign=top;resizable=0;rotatable=0;part=1;html=1;" vertex="1" parent="w9kOw2el9zwnNM_ipjZx-10">
          <mxGeometry y="50" width="160" height="140" as="geometry" />
        </mxCell>
        <mxCell id="w9kOw2el9zwnNM_ipjZx-12" style="edgeStyle=orthogonalEdgeStyle;rounded=0;orthogonalLoop=1;jettySize=auto;html=1;exitX=1;exitY=0.25;exitDx=0;exitDy=0;entryX=0;entryY=0.25;entryDx=0;entryDy=0;endArrow=ERmany;endFill=0;startArrow=ERone;startFill=0;" edge="1" parent="1" source="w9kOw2el9zwnNM_ipjZx-4" target="w9kOw2el9zwnNM_ipjZx-11">
          <mxGeometry relative="1" as="geometry" />
        </mxCell>
        <mxCell id="w9kOw2el9zwnNM_ipjZx-13" value="Warehouses" style="swimlane;childLayout=stackLayout;horizontal=1;startSize=50;horizontalStack=0;rounded=1;fontSize=14;fontStyle=0;strokeWidth=2;resizeParent=0;resizeLast=1;shadow=0;dashed=0;align=center;arcSize=4;whiteSpace=wrap;html=1;" vertex="1" parent="1">
          <mxGeometry x="620" y="440" width="160" height="190" as="geometry" />
        </mxCell>
        <mxCell id="w9kOw2el9zwnNM_ipjZx-14" value="+id&lt;div&gt;+name&lt;/div&gt;&lt;div&gt;+postcode&lt;/div&gt;&lt;div&gt;+city&lt;/div&gt;&lt;div&gt;+address&lt;/div&gt;&lt;div&gt;+capacity&lt;/div&gt;" style="align=left;strokeColor=none;fillColor=none;spacingLeft=4;fontSize=12;verticalAlign=top;resizable=0;rotatable=0;part=1;html=1;" vertex="1" parent="w9kOw2el9zwnNM_ipjZx-13">
          <mxGeometry y="50" width="160" height="140" as="geometry" />
        </mxCell>
        <mxCell id="w9kOw2el9zwnNM_ipjZx-15" value="ProductWares" style="swimlane;childLayout=stackLayout;horizontal=1;startSize=50;horizontalStack=0;rounded=1;fontSize=14;fontStyle=0;strokeWidth=2;resizeParent=0;resizeLast=1;shadow=0;dashed=0;align=center;arcSize=4;whiteSpace=wrap;html=1;" vertex="1" parent="1">
          <mxGeometry x="830" y="440" width="160" height="190" as="geometry" />
        </mxCell>
        <mxCell id="w9kOw2el9zwnNM_ipjZx-16" value="+id&lt;div&gt;+wareId&lt;/div&gt;&lt;div&gt;+productId&lt;/div&gt;&lt;div&gt;+quantity&lt;/div&gt;" style="align=left;strokeColor=none;fillColor=none;spacingLeft=4;fontSize=12;verticalAlign=top;resizable=0;rotatable=0;part=1;html=1;" vertex="1" parent="w9kOw2el9zwnNM_ipjZx-15">
          <mxGeometry y="50" width="160" height="140" as="geometry" />
        </mxCell>
        <mxCell id="w9kOw2el9zwnNM_ipjZx-19" style="edgeStyle=orthogonalEdgeStyle;rounded=0;orthogonalLoop=1;jettySize=auto;html=1;exitX=0;exitY=0.25;exitDx=0;exitDy=0;entryX=1;entryY=0.25;entryDx=0;entryDy=0;endArrow=ERmany;endFill=0;startArrow=ERone;startFill=0;" edge="1" parent="1" source="w9kOw2el9zwnNM_ipjZx-9" target="w9kOw2el9zwnNM_ipjZx-11">
          <mxGeometry relative="1" as="geometry" />
        </mxCell>
        <mxCell id="w9kOw2el9zwnNM_ipjZx-20" style="edgeStyle=orthogonalEdgeStyle;rounded=0;orthogonalLoop=1;jettySize=auto;html=1;exitX=0.5;exitY=1;exitDx=0;exitDy=0;entryX=0.5;entryY=0;entryDx=0;entryDy=0;endArrow=ERmany;endFill=0;startArrow=ERone;startFill=0;" edge="1" parent="1" source="w9kOw2el9zwnNM_ipjZx-9" target="w9kOw2el9zwnNM_ipjZx-15">
          <mxGeometry relative="1" as="geometry">
            <mxPoint x="584" y="245" as="sourcePoint" />
            <mxPoint x="630" y="245" as="targetPoint" />
          </mxGeometry>
        </mxCell>
        <mxCell id="w9kOw2el9zwnNM_ipjZx-21" style="edgeStyle=orthogonalEdgeStyle;rounded=0;orthogonalLoop=1;jettySize=auto;html=1;exitX=1;exitY=0.25;exitDx=0;exitDy=0;entryX=0;entryY=0.25;entryDx=0;entryDy=0;endArrow=ERmany;endFill=0;startArrow=ERone;startFill=0;" edge="1" parent="1" source="w9kOw2el9zwnNM_ipjZx-14" target="w9kOw2el9zwnNM_ipjZx-16">
          <mxGeometry relative="1" as="geometry">
            <mxPoint x="927" y="401" as="sourcePoint" />
            <mxPoint x="930" y="450" as="targetPoint" />
          </mxGeometry>
        </mxCell>
      </root>
    </mxGraphModel>
  </diagram>
</mxfile>
